<svg id="svg" version="1.1" xmlns="http://www.w3.org/2000/svg" xmlns:xlink="http://www.w3.org/1999/xlink" width="400" height="15.645756457564575" viewBox="0, 0, 400,15.645756457564575"><g id="svgg"><path id="path0" d="M200.908 1.240 C 200.607 1.700,200.201 4.144,199.675 8.667 C 198.951 14.891,198.641 14.877,197.739 8.583 C 196.850 2.377,196.322 0.933,195.594 2.708 C 195.389 3.209,195.235 3.942,194.306 8.833 C 193.843 11.271,193.825 11.333,193.571 11.333 C 193.218 11.333,193.072 10.922,192.512 8.363 C 191.320 2.918,190.745 2.641,189.510 6.917 C 188.364 10.881,188.177 10.926,187.081 7.500 C 186.126 4.516,185.559 4.471,184.242 7.275 C 183.118 9.668,182.974 9.701,181.970 7.811 C 180.786 5.583,180.214 5.505,178.963 7.404 C 178.571 7.999,178.137 8.513,178.000 8.545 C 177.715 8.612,177.000 8.339,177.000 8.163 C 177.000 7.854,175.526 6.500,175.190 6.500 C 174.983 6.500,174.471 6.822,174.035 7.227 C 172.627 8.530,172.538 8.536,171.050 7.400 C 170.120 6.690,169.819 6.692,168.617 7.417 C 167.469 8.109,167.196 8.127,166.025 7.582 C 164.930 7.072,164.532 7.065,163.220 7.536 L 162.189 7.906 160.947 7.596 C 160.024 7.366,159.476 7.320,158.811 7.416 C 157.870 7.551,156.311 7.580,154.500 7.494 C 149.785 7.271,0.000 7.514,0.000 7.745 C 0.000 7.957,139.716 8.249,146.500 8.051 C 147.172 8.032,148.005 8.028,151.417 8.030 C 151.967 8.030,153.092 8.026,153.917 8.020 C 154.742 8.014,155.979 8.016,156.667 8.023 C 157.354 8.031,158.381 7.983,158.948 7.916 C 159.718 7.825,160.179 7.863,160.769 8.064 C 161.803 8.416,162.309 8.404,163.333 8.000 C 164.439 7.564,164.946 7.580,166.025 8.082 C 167.172 8.616,167.567 8.603,168.583 8.000 C 169.722 7.325,170.234 7.356,171.313 8.167 C 172.517 9.072,172.774 9.039,174.121 7.810 C 175.022 6.988,175.375 6.997,176.137 7.863 C 177.176 9.043,177.322 9.167,177.678 9.167 C 178.268 9.167,178.621 8.869,179.244 7.843 C 180.214 6.247,180.616 6.303,181.600 8.176 C 182.917 10.683,183.312 10.537,184.892 6.958 C 185.575 5.411,185.913 5.600,186.752 8.000 C 187.678 10.650,188.047 11.144,188.676 10.575 C 188.967 10.311,190.000 7.436,190.000 6.888 C 190.000 6.408,190.708 4.833,190.924 4.833 C 191.154 4.833,191.450 5.669,191.839 7.417 C 192.768 11.595,193.018 12.333,193.502 12.333 C 194.088 12.333,194.354 11.443,195.244 6.500 C 195.777 3.538,195.908 3.154,196.297 3.395 C 196.500 3.519,196.877 5.564,197.425 9.500 C 198.012 13.725,198.254 14.667,198.752 14.667 C 199.325 14.667,199.580 13.451,200.338 7.083 C 201.144 0.326,201.407 0.411,202.420 7.750 C 203.419 14.987,204.140 15.325,205.267 9.083 C 206.408 2.760,206.545 2.683,207.667 7.745 C 208.777 12.750,209.328 12.826,210.663 8.158 C 211.625 4.794,211.868 4.701,212.759 7.357 C 214.026 11.136,214.401 11.227,215.917 8.124 C 216.963 5.980,217.134 5.940,218.083 7.627 C 219.380 9.933,219.794 10.009,221.051 8.171 C 222.067 6.684,222.278 6.670,223.511 7.999 C 224.684 9.266,224.988 9.288,226.195 8.196 C 227.434 7.074,227.484 7.068,228.735 7.925 C 230.041 8.819,230.268 8.832,231.500 8.083 C 232.649 7.385,232.763 7.378,233.934 7.932 C 234.971 8.423,235.838 8.418,237.219 7.913 C 238.000 7.628,238.055 7.630,239.347 7.984 C 240.634 8.336,240.707 8.339,241.781 8.070 C 242.601 7.864,243.150 7.826,243.902 7.922 C 244.460 7.993,245.442 8.045,246.083 8.035 C 247.451 8.016,249.866 8.019,251.167 8.042 C 261.882 8.231,400.000 7.956,400.000 7.746 C 400.000 7.517,392.246 7.492,324.584 7.506 C 283.106 7.514,249.104 7.481,249.026 7.433 C 248.948 7.384,248.197 7.429,247.358 7.533 C 246.172 7.679,245.527 7.673,244.452 7.505 C 243.246 7.318,242.917 7.326,241.861 7.566 C 240.684 7.833,240.614 7.831,239.305 7.472 L 237.960 7.103 236.662 7.564 L 235.364 8.026 234.196 7.513 C 232.751 6.879,232.836 6.876,231.398 7.587 C 230.060 8.248,229.870 8.231,228.769 7.351 C 227.758 6.543,227.208 6.595,226.132 7.600 C 225.143 8.525,224.698 8.548,223.962 7.716 C 222.262 5.794,222.103 5.809,220.545 8.057 C 219.781 9.159,219.501 9.095,218.644 7.625 C 217.084 4.946,216.765 4.973,215.497 7.890 C 214.439 10.324,214.229 10.271,213.245 7.318 C 212.018 3.635,211.409 3.757,210.252 7.921 C 209.252 11.516,208.997 11.508,208.164 7.853 C 206.639 1.162,206.224 1.358,204.733 9.477 C 203.922 13.891,203.723 13.552,202.595 5.838 C 201.909 1.148,201.572 0.227,200.908 1.240 " stroke="none" fill="#b16565" fill-rule="evenodd"></path><path id="path1" d="M0.000 3.583 L 0.000 7.167 72.875 7.185 C 112.956 7.195,147.137 7.221,148.833 7.241 C 150.529 7.262,152.479 7.208,153.167 7.121 C 154.141 6.997,154.688 7.019,155.644 7.219 C 156.795 7.461,156.947 7.457,158.125 7.156 C 159.305 6.854,159.436 6.851,160.315 7.101 C 161.872 7.545,162.249 7.556,163.244 7.183 C 164.467 6.726,165.164 6.742,166.167 7.250 C 167.220 7.784,167.266 7.781,168.638 7.064 C 169.983 6.361,170.378 6.408,171.648 7.418 C 172.567 8.148,172.488 8.158,173.579 7.170 C 175.018 5.867,175.778 5.922,176.843 7.405 C 177.702 8.602,177.741 8.592,178.958 6.836 C 180.143 5.128,180.971 5.281,182.110 7.419 C 183.008 9.105,183.041 9.098,183.993 7.015 C 185.290 4.180,186.392 4.166,187.254 6.975 C 187.643 8.244,188.180 9.500,188.332 9.500 C 188.401 9.500,188.699 8.581,188.994 7.458 C 190.393 2.133,191.501 2.241,192.742 7.823 C 193.516 11.303,193.521 11.305,194.089 8.141 C 195.018 2.965,195.288 2.060,195.950 1.893 C 196.856 1.666,197.218 2.644,197.831 6.964 C 198.152 9.231,198.439 11.034,198.606 11.831 C 198.773 12.627,198.962 11.798,199.328 8.667 C 200.197 1.230,200.499 0.142,201.558 0.625 C 202.165 0.901,202.494 2.383,203.347 8.667 C 203.801 12.016,203.945 12.006,204.561 8.583 C 205.464 3.567,205.721 2.833,206.576 2.833 C 207.282 2.833,207.421 3.202,208.575 8.142 C 209.155 10.625,209.126 10.632,209.927 7.817 C 211.203 3.331,212.133 3.117,213.498 6.994 C 214.123 8.768,214.400 9.335,214.558 9.156 C 214.593 9.116,214.941 8.350,215.331 7.454 C 216.558 4.634,217.295 4.589,218.795 7.242 C 219.627 8.713,219.672 8.720,220.487 7.519 C 221.849 5.513,222.626 5.482,224.064 7.375 C 224.683 8.188,225.037 8.167,226.010 7.257 C 227.113 6.225,228.477 6.185,229.083 7.165 C 229.500 7.840,230.161 7.868,231.336 7.260 C 232.699 6.555,233.005 6.535,234.038 7.085 C 235.071 7.635,235.395 7.644,236.798 7.167 L 237.979 6.765 239.310 7.150 C 240.633 7.532,240.649 7.533,241.895 7.239 C 243.007 6.977,243.304 6.968,244.532 7.157 C 245.556 7.316,246.286 7.328,247.333 7.205 C 248.112 7.114,249.162 7.087,249.667 7.145 C 250.171 7.203,284.202 7.231,325.292 7.207 L 400.000 7.163 400.000 3.582 L 400.000 0.000 200.000 0.000 L 0.000 0.000 0.000 3.583 M201.020 4.458 C 200.922 5.077,200.723 6.633,200.577 7.917 C 199.872 14.120,199.574 15.180,198.607 14.937 C 197.922 14.766,197.712 13.963,196.924 8.516 C 196.190 3.431,196.113 3.308,195.594 6.389 C 194.654 11.969,194.318 12.866,193.268 12.603 C 192.732 12.468,192.429 11.661,191.737 8.533 C 190.957 5.004,190.827 4.862,190.332 7.000 C 189.164 12.040,188.096 12.496,186.619 8.588 C 185.691 6.136,185.652 6.122,184.815 7.943 C 183.454 10.903,182.702 10.958,181.239 8.208 C 180.454 6.732,180.384 6.727,179.495 8.090 C 178.305 9.918,177.631 10.005,176.306 8.500 C 175.300 7.357,175.085 7.302,174.406 8.012 C 173.139 9.336,172.375 9.429,171.053 8.420 C 170.117 7.704,169.640 7.688,168.683 8.336 C 167.789 8.942,167.237 8.958,165.917 8.413 C 164.705 7.914,164.416 7.905,163.417 8.333 C 162.444 8.750,161.862 8.750,160.526 8.331 C 159.519 8.015,159.418 8.012,158.442 8.268 C 157.668 8.471,157.110 8.506,156.167 8.411 C 155.479 8.342,154.542 8.284,154.083 8.283 C 153.625 8.282,118.769 8.291,76.625 8.305 L 0.000 8.328 0.000 11.914 L 0.000 15.500 200.000 15.500 L 400.000 15.500 400.000 11.915 L 400.000 8.331 324.655 8.335 C 283.216 8.337,249.238 8.294,249.149 8.239 C 249.060 8.184,248.310 8.232,247.483 8.345 C 246.263 8.511,245.709 8.508,244.556 8.329 C 243.270 8.129,243.016 8.137,241.898 8.416 L 240.662 8.724 239.434 8.339 C 238.123 7.928,237.950 7.936,236.444 8.489 C 235.379 8.880,235.210 8.862,233.778 8.205 L 232.805 7.759 231.671 8.379 C 230.132 9.221,229.823 9.198,228.476 8.143 C 227.664 7.507,227.443 7.537,226.463 8.419 C 225.091 9.652,224.317 9.587,223.219 8.148 C 222.444 7.131,222.155 7.127,221.483 8.125 C 219.883 10.504,219.248 10.439,217.739 7.741 C 216.994 6.409,217.118 6.364,216.222 8.292 C 214.678 11.615,213.807 11.507,212.585 7.839 C 211.768 5.386,211.692 5.438,210.751 9.077 C 210.182 11.283,209.903 11.750,209.157 11.750 C 208.385 11.750,208.042 11.013,207.334 7.833 C 206.495 4.067,206.516 4.051,205.598 9.164 C 204.942 12.818,204.673 13.551,203.961 13.635 C 203.155 13.730,202.735 12.500,202.178 8.417 C 201.410 2.796,201.326 2.510,201.020 4.458 " stroke="none" fill="#fbfbfb" fill-rule="evenodd"></path><path id="path2" d="M119.794 7.451 C 120.001 7.491,120.301 7.490,120.460 7.448 C 120.620 7.406,120.450 7.374,120.083 7.375 C 119.717 7.377,119.586 7.411,119.794 7.451 M124.463 7.456 C 124.855 7.491,125.455 7.490,125.796 7.454 C 126.137 7.419,125.817 7.390,125.083 7.390 C 124.350 7.391,124.071 7.420,124.463 7.456 M130.129 7.456 C 130.521 7.491,131.121 7.490,131.463 7.454 C 131.804 7.419,131.483 7.390,130.750 7.390 C 130.017 7.391,129.737 7.420,130.129 7.456 M134.963 7.456 C 135.355 7.491,135.955 7.490,136.296 7.454 C 136.637 7.419,136.317 7.390,135.583 7.390 C 134.850 7.391,134.571 7.420,134.963 7.456 M255.294 7.451 C 255.501 7.491,255.801 7.490,255.960 7.448 C 256.120 7.406,255.950 7.374,255.583 7.375 C 255.217 7.377,255.086 7.411,255.294 7.451 M260.794 7.451 C 261.001 7.491,261.301 7.490,261.460 7.448 C 261.620 7.406,261.450 7.374,261.083 7.375 C 260.717 7.377,260.586 7.411,260.794 7.451 M266.463 7.456 C 266.855 7.491,267.455 7.490,267.796 7.454 C 268.137 7.419,267.817 7.390,267.083 7.390 C 266.350 7.391,266.071 7.420,266.463 7.456 M271.375 7.455 C 271.719 7.491,272.281 7.491,272.625 7.455 C 272.969 7.419,272.688 7.389,272.000 7.389 C 271.313 7.389,271.031 7.419,271.375 7.455 M276.711 7.453 C 276.964 7.491,277.339 7.490,277.544 7.451 C 277.749 7.411,277.542 7.380,277.083 7.381 C 276.625 7.382,276.457 7.415,276.711 7.453 M156.542 7.615 C 156.702 7.657,156.965 7.657,157.125 7.615 C 157.285 7.573,157.154 7.539,156.833 7.539 C 156.512 7.539,156.381 7.573,156.542 7.615 M159.127 7.951 C 159.334 7.991,159.634 7.990,159.794 7.948 C 159.953 7.906,159.783 7.874,159.417 7.875 C 159.050 7.877,158.920 7.911,159.127 7.951 M137.958 8.118 C 138.165 8.157,138.502 8.157,138.708 8.118 C 138.915 8.078,138.746 8.045,138.333 8.045 C 137.921 8.045,137.752 8.078,137.958 8.118 M143.042 8.119 C 143.294 8.158,143.706 8.158,143.958 8.119 C 144.210 8.081,144.004 8.050,143.500 8.050 C 142.996 8.050,142.790 8.081,143.042 8.119 M253.375 8.119 C 253.627 8.158,254.040 8.158,254.292 8.119 C 254.544 8.081,254.338 8.050,253.833 8.050 C 253.329 8.050,253.123 8.081,253.375 8.119 M258.628 8.121 C 258.928 8.158,259.378 8.157,259.628 8.119 C 259.878 8.081,259.633 8.051,259.083 8.052 C 258.533 8.053,258.328 8.084,258.628 8.121 M263.958 8.118 C 264.165 8.157,264.502 8.157,264.708 8.118 C 264.915 8.078,264.746 8.045,264.333 8.045 C 263.921 8.045,263.752 8.078,263.958 8.118 M146.042 8.282 C 146.202 8.323,146.465 8.323,146.625 8.282 C 146.785 8.240,146.654 8.205,146.333 8.205 C 146.012 8.205,145.881 8.240,146.042 8.282 M151.211 8.286 C 151.464 8.325,151.839 8.324,152.044 8.284 C 152.249 8.244,152.042 8.213,151.583 8.214 C 151.125 8.216,150.957 8.248,151.211 8.286 M250.794 8.285 C 251.001 8.324,251.301 8.323,251.460 8.281 C 251.620 8.239,251.450 8.207,251.083 8.209 C 250.717 8.211,250.586 8.245,250.794 8.285 M240.375 8.448 C 240.535 8.490,240.798 8.490,240.958 8.448 C 241.119 8.406,240.987 8.372,240.667 8.372 C 240.346 8.372,240.215 8.406,240.375 8.448 " stroke="none" fill="#d4a4a4" fill-rule="evenodd"></path><path id="path3" d="M201.065 2.405 C 201.006 2.557,201.006 2.728,201.063 2.785 C 201.120 2.842,201.167 2.801,201.167 2.694 C 201.167 2.391,201.467 2.466,201.552 2.792 C 201.616 3.038,201.631 3.041,201.647 2.812 C 201.677 2.391,201.199 2.056,201.065 2.405 M206.012 3.439 C 205.822 3.681,205.670 3.999,205.673 4.147 C 205.677 4.296,205.782 4.180,205.908 3.892 C 206.034 3.603,206.275 3.287,206.443 3.188 C 206.612 3.090,206.662 3.008,206.554 3.005 C 206.446 3.002,206.202 3.198,206.012 3.439 M206.968 3.417 C 207.053 3.600,207.163 3.862,207.214 4.000 C 207.294 4.216,207.309 4.215,207.320 3.990 C 207.327 3.847,207.217 3.585,207.074 3.407 C 206.819 3.089,206.817 3.089,206.968 3.417 M195.845 3.646 C 195.747 3.828,195.673 4.114,195.682 4.281 C 195.690 4.447,195.767 4.340,195.853 4.042 C 196.020 3.465,196.258 3.336,196.387 3.753 C 196.447 3.946,196.460 3.939,196.441 3.725 C 196.405 3.311,196.049 3.263,195.845 3.646 M190.401 4.208 C 190.084 4.583,190.084 4.583,190.430 4.292 C 190.887 3.907,191.094 3.924,191.407 4.370 C 191.550 4.574,191.667 4.661,191.667 4.563 C 191.667 3.936,190.830 3.701,190.401 4.208 M206.224 4.424 C 206.170 4.565,206.172 4.728,206.229 4.785 C 206.287 4.842,206.333 4.756,206.333 4.593 C 206.333 4.399,206.419 4.331,206.583 4.394 C 206.721 4.446,206.833 4.417,206.833 4.328 C 206.833 4.065,206.331 4.144,206.224 4.424 M211.886 4.686 C 212.053 4.783,212.334 5.100,212.511 5.390 C 212.687 5.680,212.832 5.829,212.833 5.721 C 212.834 5.447,212.011 4.499,211.777 4.505 C 211.670 4.508,211.720 4.589,211.886 4.686 M211.065 5.089 C 210.913 5.321,210.818 5.541,210.856 5.578 C 210.893 5.615,211.049 5.425,211.204 5.156 C 211.548 4.557,211.446 4.507,211.065 5.089 M190.597 5.107 C 190.512 5.330,190.537 5.343,190.733 5.181 C 190.924 5.022,191.012 5.043,191.166 5.282 C 191.350 5.571,191.354 5.571,191.263 5.278 C 191.210 5.110,191.167 4.941,191.167 4.903 C 191.167 4.701,190.687 4.873,190.597 5.107 M200.539 5.500 C 200.539 5.821,200.573 5.952,200.615 5.792 C 200.657 5.631,200.657 5.369,200.615 5.208 C 200.573 5.048,200.539 5.179,200.539 5.500 M184.898 5.589 C 184.746 5.821,184.669 6.058,184.727 6.116 C 184.786 6.175,184.833 6.135,184.833 6.028 C 184.833 5.921,184.983 5.683,185.167 5.500 C 185.350 5.317,185.427 5.167,185.337 5.167 C 185.248 5.167,185.050 5.357,184.898 5.589 M191.857 5.500 C 191.857 5.638,191.921 5.900,192.000 6.083 C 192.090 6.293,192.143 6.324,192.143 6.167 C 192.143 6.029,192.079 5.767,192.000 5.583 C 191.910 5.373,191.857 5.342,191.857 5.500 M211.410 5.678 C 211.349 5.776,211.345 5.901,211.400 5.956 C 211.455 6.011,211.500 5.968,211.500 5.861 C 211.500 5.562,211.963 5.631,212.153 5.958 C 212.247 6.119,212.325 6.171,212.328 6.075 C 212.341 5.631,211.629 5.323,211.410 5.678 M199.875 6.250 C 199.877 6.617,199.911 6.747,199.951 6.540 C 199.991 6.332,199.990 6.032,199.948 5.873 C 199.906 5.714,199.874 5.883,199.875 6.250 M185.075 6.515 C 184.929 6.799,184.842 7.064,184.882 7.104 C 184.922 7.144,185.048 6.954,185.161 6.681 C 185.277 6.401,185.522 6.155,185.725 6.115 C 186.080 6.046,186.080 6.045,185.713 6.023 C 185.454 6.007,185.261 6.156,185.075 6.515 M200.375 6.917 C 200.377 7.283,200.411 7.414,200.451 7.206 C 200.491 6.999,200.490 6.699,200.448 6.540 C 200.406 6.380,200.374 6.550,200.375 6.917 M216.714 6.535 C 216.475 6.834,215.998 7.789,216.008 7.950 C 216.012 8.023,216.201 7.727,216.428 7.292 C 216.931 6.325,217.222 6.296,217.667 7.167 C 217.854 7.533,218.048 7.833,218.099 7.833 C 218.150 7.833,218.016 7.515,217.802 7.127 C 217.393 6.385,217.003 6.173,216.714 6.535 M221.387 6.708 C 221.202 6.915,220.805 7.447,220.506 7.891 C 220.063 8.549,219.890 8.684,219.569 8.623 C 219.353 8.582,219.216 8.612,219.265 8.691 C 219.467 9.017,220.013 8.793,220.437 8.208 C 220.687 7.865,221.107 7.302,221.370 6.958 C 221.901 6.266,221.910 6.127,221.387 6.708 M173.826 7.292 L 173.083 8.083 173.914 7.333 C 174.370 6.921,174.776 6.565,174.816 6.542 C 174.856 6.519,174.817 6.500,174.729 6.500 C 174.641 6.500,174.235 6.856,173.826 7.292 M218.250 7.000 C 218.392 7.275,218.546 7.500,218.592 7.500 C 218.638 7.500,218.559 7.275,218.417 7.000 C 218.274 6.725,218.121 6.500,218.075 6.500 C 218.029 6.500,218.108 6.725,218.250 7.000 M223.314 6.973 C 223.500 7.233,223.783 7.552,223.944 7.681 C 224.105 7.811,223.983 7.598,223.674 7.208 C 223.038 6.408,222.802 6.254,223.314 6.973 M180.333 6.780 C 180.471 6.828,180.760 7.065,180.977 7.308 C 181.193 7.551,181.313 7.638,181.243 7.500 C 181.000 7.022,180.613 6.667,180.349 6.680 C 180.124 6.691,180.122 6.706,180.333 6.780 M215.694 7.090 C 215.414 7.703,215.468 7.834,215.770 7.277 C 215.911 7.017,215.995 6.773,215.957 6.735 C 215.919 6.696,215.800 6.857,215.694 7.090 M179.730 7.042 C 179.157 8.015,179.119 8.098,179.411 7.750 C 179.750 7.347,180.042 6.833,179.932 6.833 C 179.889 6.833,179.798 6.927,179.730 7.042 M226.075 7.542 L 225.417 8.250 226.125 7.591 C 226.515 7.229,226.833 6.910,226.833 6.883 C 226.833 6.757,226.688 6.883,226.075 7.542 M164.750 7.156 C 165.117 7.219,165.657 7.397,165.950 7.552 C 166.243 7.707,166.543 7.830,166.617 7.826 C 167.058 7.801,165.143 7.018,164.667 7.028 L 164.083 7.042 164.750 7.156 M183.947 7.591 C 183.555 8.412,183.610 8.552,184.019 7.776 C 184.205 7.424,184.328 7.106,184.292 7.070 C 184.256 7.034,184.100 7.268,183.947 7.591 M221.485 7.542 C 221.213 7.940,221.199 7.995,221.432 7.750 C 221.607 7.567,221.858 7.323,221.990 7.208 C 222.132 7.086,222.153 7.000,222.043 7.000 C 221.940 7.000,221.689 7.244,221.485 7.542 M222.500 7.052 C 222.500 7.081,222.744 7.325,223.042 7.594 L 223.583 8.083 223.094 7.542 C 222.638 7.037,222.500 6.923,222.500 7.052 M228.994 7.488 C 229.311 7.770,229.642 8.000,229.730 8.000 C 229.817 8.000,229.858 7.978,229.819 7.952 C 229.781 7.925,229.450 7.695,229.083 7.440 L 228.417 6.976 228.994 7.488 M159.044 7.286 C 159.297 7.325,159.672 7.324,159.877 7.284 C 160.082 7.244,159.875 7.213,159.417 7.214 C 158.958 7.216,158.791 7.248,159.044 7.286 M242.960 7.285 C 243.168 7.324,243.468 7.323,243.627 7.281 C 243.786 7.239,243.617 7.207,243.250 7.209 C 242.883 7.211,242.753 7.245,242.960 7.285 M29.778 7.458 C 46.202 7.482,73.127 7.482,89.611 7.458 C 106.096 7.435,92.658 7.416,59.750 7.416 C 26.842 7.416,13.354 7.435,29.778 7.458 M121.464 7.456 C 121.948 7.490,122.698 7.490,123.131 7.456 C 123.563 7.421,123.167 7.394,122.250 7.394 C 121.333 7.395,120.980 7.423,121.464 7.456 M127.131 7.456 C 127.615 7.490,128.365 7.490,128.797 7.456 C 129.230 7.421,128.833 7.394,127.917 7.394 C 127.000 7.395,126.646 7.423,127.131 7.456 M132.542 7.455 C 132.885 7.491,133.448 7.491,133.792 7.455 C 134.135 7.419,133.854 7.389,133.167 7.389 C 132.479 7.389,132.198 7.419,132.542 7.455 M137.542 7.456 C 137.977 7.490,138.690 7.490,139.125 7.456 C 139.560 7.422,139.204 7.393,138.333 7.393 C 137.462 7.393,137.106 7.422,137.542 7.456 M142.963 7.456 C 143.355 7.491,143.955 7.490,144.296 7.454 C 144.637 7.419,144.317 7.390,143.583 7.390 C 142.850 7.391,142.571 7.420,142.963 7.456 M148.292 7.455 C 148.681 7.490,149.319 7.490,149.708 7.455 C 150.098 7.420,149.779 7.392,149.000 7.392 C 148.221 7.392,147.902 7.420,148.292 7.455 M171.320 7.561 C 171.542 7.834,172.167 8.247,172.167 8.121 C 172.167 8.089,171.923 7.884,171.625 7.666 C 171.290 7.421,171.173 7.381,171.320 7.561 M173.991 7.958 L 173.417 8.583 174.042 8.009 C 174.623 7.474,174.743 7.333,174.616 7.333 C 174.588 7.333,174.307 7.615,173.991 7.958 M226.197 8.173 C 225.709 8.628,225.352 9.000,225.403 9.000 C 225.455 9.000,225.911 8.625,226.417 8.167 C 226.923 7.708,227.280 7.336,227.210 7.340 C 227.140 7.343,226.684 7.718,226.197 8.173 M228.250 7.720 C 228.794 8.177,229.667 8.728,229.667 8.615 C 229.667 8.545,228.485 7.711,228.003 7.442 C 227.864 7.364,227.975 7.489,228.250 7.720 M247.542 7.448 C 247.702 7.490,247.965 7.490,248.125 7.448 C 248.285 7.406,248.154 7.372,247.833 7.372 C 247.512 7.372,247.381 7.406,247.542 7.448 M249.208 7.448 C 249.369 7.490,249.631 7.490,249.792 7.448 C 249.952 7.406,249.821 7.372,249.500 7.372 C 249.179 7.372,249.048 7.406,249.208 7.448 M253.208 7.455 C 253.552 7.491,254.115 7.491,254.458 7.455 C 254.802 7.419,254.521 7.389,253.833 7.389 C 253.146 7.389,252.865 7.419,253.208 7.455 M258.458 7.455 C 258.848 7.490,259.485 7.490,259.875 7.455 C 260.265 7.420,259.946 7.392,259.167 7.392 C 258.387 7.392,258.069 7.420,258.458 7.455 M263.542 7.456 C 263.977 7.490,264.690 7.490,265.125 7.456 C 265.560 7.422,265.204 7.393,264.333 7.393 C 263.462 7.393,263.106 7.422,263.542 7.456 M268.963 7.456 C 269.355 7.491,269.955 7.490,270.296 7.454 C 270.637 7.419,270.317 7.390,269.583 7.390 C 268.850 7.391,268.571 7.420,268.963 7.456 M273.964 7.456 C 274.448 7.490,275.198 7.490,275.631 7.456 C 276.063 7.421,275.667 7.394,274.750 7.394 C 273.833 7.395,273.480 7.423,273.964 7.456 M308.389 7.458 C 325.240 7.482,352.765 7.482,369.555 7.458 C 386.346 7.435,372.558 7.416,338.917 7.416 C 305.275 7.416,291.537 7.435,308.389 7.458 M140.711 7.620 C 140.964 7.658,141.339 7.657,141.544 7.617 C 141.749 7.578,141.542 7.546,141.083 7.548 C 140.625 7.549,140.457 7.581,140.711 7.620 M145.795 7.621 C 146.094 7.658,146.544 7.657,146.795 7.619 C 147.045 7.581,146.800 7.551,146.250 7.552 C 145.700 7.553,145.495 7.584,145.795 7.621 M150.958 7.621 C 151.256 7.658,151.744 7.658,152.042 7.621 C 152.340 7.584,152.096 7.553,151.500 7.553 C 150.904 7.553,150.660 7.584,150.958 7.621 M170.427 7.714 C 170.616 7.826,171.036 8.123,171.359 8.375 C 171.683 8.627,172.005 8.833,172.074 8.833 C 172.143 8.833,171.801 8.533,171.313 8.167 C 170.825 7.800,170.349 7.503,170.254 7.506 C 170.160 7.509,170.238 7.603,170.427 7.714 M232.074 7.762 C 231.896 7.907,231.856 7.970,231.985 7.902 C 232.115 7.835,232.452 7.725,232.735 7.657 C 233.209 7.544,233.216 7.533,232.824 7.517 C 232.589 7.508,232.251 7.618,232.074 7.762 M245.127 7.618 C 245.334 7.658,245.634 7.656,245.794 7.615 C 245.953 7.573,245.783 7.540,245.417 7.542 C 245.050 7.544,244.920 7.578,245.127 7.618 M250.792 7.621 C 251.090 7.658,251.577 7.658,251.875 7.621 C 252.173 7.584,251.929 7.553,251.333 7.553 C 250.737 7.553,250.494 7.584,250.792 7.621 M256.042 7.619 C 256.294 7.658,256.706 7.658,256.958 7.619 C 257.210 7.581,257.004 7.550,256.500 7.550 C 255.996 7.550,255.790 7.581,256.042 7.619 M261.542 7.615 C 261.702 7.657,261.965 7.657,262.125 7.615 C 262.285 7.573,262.154 7.539,261.833 7.539 C 261.512 7.539,261.381 7.573,261.542 7.615 M161.794 7.785 C 162.001 7.824,162.301 7.823,162.460 7.781 C 162.620 7.739,162.450 7.707,162.083 7.709 C 161.717 7.711,161.586 7.745,161.794 7.785 M165.477 8.004 C 165.876 8.185,166.251 8.330,166.310 8.326 C 166.520 8.313,165.245 7.681,165.000 7.677 C 164.862 7.675,165.077 7.822,165.477 8.004 M167.333 7.833 L 166.750 7.956 167.282 7.978 C 167.574 7.990,167.860 7.925,167.917 7.833 C 167.973 7.742,167.996 7.677,167.968 7.689 C 167.940 7.701,167.654 7.766,167.333 7.833 M168.417 8.088 C 168.050 8.314,167.816 8.499,167.897 8.499 C 168.068 8.500,169.167 7.840,169.167 7.736 C 169.167 7.631,169.134 7.646,168.417 8.088 M148.708 7.948 C 148.869 7.990,149.131 7.990,149.292 7.948 C 149.452 7.906,149.321 7.872,149.000 7.872 C 148.679 7.872,148.548 7.906,148.708 7.948 M153.708 7.953 C 153.960 7.991,154.373 7.991,154.625 7.953 C 154.877 7.915,154.671 7.883,154.167 7.883 C 153.662 7.883,153.456 7.915,153.708 7.953 M176.331 8.251 C 176.995 9.051,177.050 9.102,176.869 8.748 C 176.775 8.564,176.522 8.264,176.307 8.083 C 175.930 7.764,175.931 7.770,176.331 8.251 M197.705 8.333 C 197.705 8.654,197.740 8.785,197.782 8.625 C 197.823 8.465,197.823 8.202,197.782 8.042 C 197.740 7.881,197.705 8.012,197.705 8.333 M215.194 8.257 C 214.914 8.870,214.968 9.001,215.270 8.444 C 215.411 8.183,215.495 7.939,215.457 7.901 C 215.419 7.863,215.300 8.023,215.194 8.257 M242.083 8.000 C 241.659 8.183,242.097 8.183,242.667 8.000 C 243.002 7.893,243.018 7.866,242.750 7.862 C 242.567 7.859,242.267 7.921,242.083 8.000 M248.211 7.953 C 248.464 7.991,248.839 7.990,249.044 7.951 C 249.249 7.911,249.042 7.880,248.583 7.881 C 248.125 7.882,247.957 7.915,248.211 7.953 M33.208 8.125 C 51.519 8.148,81.481 8.148,99.792 8.125 C 118.102 8.102,103.121 8.083,66.500 8.083 C 29.879 8.083,14.898 8.102,33.208 8.125 M134.375 8.124 C 134.994 8.156,136.006 8.156,136.625 8.124 C 137.244 8.092,136.737 8.065,135.500 8.065 C 134.262 8.065,133.756 8.092,134.375 8.124 M139.875 8.123 C 140.402 8.156,141.265 8.156,141.792 8.123 C 142.319 8.090,141.887 8.063,140.833 8.063 C 139.779 8.063,139.348 8.090,139.875 8.123 M144.625 8.118 C 144.831 8.157,145.169 8.157,145.375 8.118 C 145.581 8.078,145.412 8.045,145.000 8.045 C 144.587 8.045,144.419 8.078,144.625 8.118 M147.208 8.115 C 147.369 8.157,147.631 8.157,147.792 8.115 C 147.952 8.073,147.821 8.039,147.500 8.039 C 147.179 8.039,147.048 8.073,147.208 8.115 M252.127 8.118 C 252.334 8.158,252.634 8.156,252.794 8.115 C 252.953 8.073,252.783 8.040,252.417 8.042 C 252.050 8.044,251.920 8.078,252.127 8.118 M255.548 8.123 C 256.078 8.157,256.903 8.156,257.381 8.123 C 257.859 8.089,257.425 8.062,256.417 8.062 C 255.408 8.063,255.017 8.090,255.548 8.123 M260.875 8.123 C 261.402 8.156,262.265 8.156,262.792 8.123 C 263.319 8.090,262.887 8.063,261.833 8.063 C 260.779 8.063,260.348 8.090,260.875 8.123 M266.042 8.124 C 266.660 8.156,267.673 8.156,268.292 8.124 C 268.910 8.092,268.404 8.065,267.167 8.065 C 265.929 8.065,265.423 8.092,266.042 8.124 M302.208 8.125 C 320.152 8.148,349.515 8.148,367.458 8.125 C 385.402 8.102,370.721 8.082,334.833 8.082 C 298.946 8.082,284.265 8.102,302.208 8.125 M156.458 8.284 C 156.665 8.324,157.002 8.324,157.208 8.284 C 157.415 8.245,157.246 8.212,156.833 8.212 C 156.421 8.212,156.252 8.245,156.458 8.284 M234.519 8.349 C 234.646 8.429,235.088 8.490,235.500 8.484 C 236.389 8.472,236.231 8.392,235.103 8.282 C 234.601 8.233,234.377 8.259,234.519 8.349 M245.708 8.282 C 245.869 8.323,246.131 8.323,246.292 8.282 C 246.452 8.240,246.321 8.205,246.000 8.205 C 245.679 8.205,245.548 8.240,245.708 8.282 M161.708 8.448 C 161.869 8.490,162.131 8.490,162.292 8.448 C 162.452 8.406,162.321 8.372,162.000 8.372 C 161.679 8.372,161.548 8.406,161.708 8.448 M182.497 8.792 C 182.678 9.166,183.230 9.302,183.407 9.016 C 183.458 8.932,183.347 8.905,183.159 8.954 C 182.944 9.010,182.725 8.927,182.567 8.730 C 182.329 8.435,182.325 8.438,182.497 8.792 M199.539 9.000 C 199.539 9.321,199.573 9.452,199.615 9.292 C 199.657 9.131,199.657 8.869,199.615 8.708 C 199.573 8.548,199.539 8.679,199.539 9.000 M213.677 8.550 C 213.630 9.144,214.488 9.924,214.740 9.516 C 214.792 9.432,214.699 9.400,214.535 9.442 C 214.324 9.498,214.157 9.360,213.962 8.969 C 213.811 8.665,213.683 8.477,213.677 8.550 M215.420 9.160 C 215.051 9.977,214.598 10.407,214.248 10.272 C 214.094 10.213,214.026 10.240,214.085 10.335 C 214.251 10.605,214.587 10.524,214.951 10.125 C 215.341 9.699,215.893 8.671,215.788 8.566 C 215.750 8.528,215.584 8.795,215.420 9.160 M178.417 8.933 C 178.233 9.073,177.881 9.159,177.634 9.124 C 177.387 9.089,177.222 9.122,177.269 9.197 C 177.422 9.445,178.124 9.338,178.523 9.006 C 178.986 8.620,178.901 8.562,178.417 8.933 M187.507 8.703 C 187.468 9.336,188.330 10.244,188.582 9.835 C 188.640 9.742,188.576 9.712,188.436 9.766 C 188.269 9.830,188.079 9.653,187.852 9.222 C 187.666 8.871,187.511 8.637,187.507 8.703 M192.028 8.833 C 192.037 9.266,192.299 9.978,192.305 9.583 C 192.308 9.400,192.245 9.100,192.167 8.917 C 192.079 8.712,192.025 8.680,192.028 8.833 M181.925 9.000 C 182.344 9.839,182.978 10.173,183.500 9.831 C 183.680 9.713,183.604 9.695,183.233 9.766 C 182.790 9.851,182.650 9.785,182.258 9.308 C 182.006 9.001,181.856 8.862,181.925 9.000 M218.987 9.208 C 219.388 9.663,219.894 9.806,220.074 9.516 C 220.125 9.432,220.013 9.405,219.826 9.454 C 219.608 9.511,219.321 9.400,219.034 9.147 L 218.583 8.750 218.987 9.208 M200.042 9.583 C 200.044 9.950,200.078 10.080,200.118 9.873 C 200.158 9.666,200.156 9.366,200.115 9.206 C 200.073 9.047,200.040 9.217,200.042 9.583 M188.784 10.433 C 188.411 10.932,188.094 10.941,187.759 10.463 C 187.617 10.259,187.500 10.173,187.500 10.270 C 187.500 10.487,188.046 11.000,188.276 11.000 C 188.473 11.000,189.255 10.198,189.153 10.100 C 189.115 10.063,188.949 10.213,188.784 10.433 M209.804 10.841 C 209.465 11.642,208.966 11.725,208.595 11.042 C 208.459 10.790,208.344 10.660,208.340 10.755 C 208.325 11.132,208.875 11.684,209.216 11.634 C 209.570 11.583,210.243 10.640,210.139 10.343 C 210.109 10.254,209.958 10.479,209.804 10.841 M193.013 10.469 C 192.992 10.829,193.327 11.333,193.589 11.333 C 193.723 11.333,193.833 11.261,193.833 11.172 C 193.833 11.083,193.729 11.051,193.601 11.100 C 193.454 11.156,193.306 11.017,193.197 10.719 C 193.103 10.461,193.020 10.349,193.013 10.469 M192.523 10.833 C 192.523 10.971,192.588 11.233,192.667 11.417 C 192.757 11.627,192.810 11.658,192.810 11.500 C 192.810 11.362,192.745 11.100,192.667 10.917 C 192.576 10.707,192.523 10.676,192.523 10.833 M197.539 11.167 C 197.539 11.487,197.573 11.619,197.615 11.458 C 197.657 11.298,197.657 11.035,197.615 10.875 C 197.573 10.715,197.539 10.846,197.539 11.167 M199.205 11.667 C 199.205 11.987,199.240 12.119,199.282 11.958 C 199.323 11.798,199.323 11.535,199.282 11.375 C 199.240 11.215,199.205 11.346,199.205 11.667 M202.857 11.333 C 202.857 11.471,202.921 11.733,203.000 11.917 C 203.090 12.127,203.143 12.158,203.143 12.000 C 203.143 11.862,203.079 11.600,203.000 11.417 C 202.910 11.207,202.857 11.176,202.857 11.333 M203.513 11.500 C 203.500 11.911,203.781 12.222,204.067 12.113 C 204.213 12.057,204.333 11.881,204.333 11.723 C 204.333 11.469,204.306 11.473,204.095 11.760 C 203.863 12.074,203.852 12.072,203.689 11.667 C 203.597 11.438,203.518 11.362,203.513 11.500 M194.022 11.934 C 193.868 12.274,193.733 12.353,193.417 12.293 C 193.193 12.250,193.050 12.279,193.098 12.357 C 193.275 12.644,193.833 12.489,194.102 12.078 C 194.254 11.846,194.343 11.621,194.300 11.577 C 194.256 11.534,194.131 11.695,194.022 11.934 M198.949 12.677 C 198.891 12.900,198.781 12.987,198.656 12.910 C 198.532 12.833,198.484 12.870,198.530 13.008 C 198.665 13.411,198.959 13.355,199.072 12.904 C 199.133 12.660,199.151 12.429,199.113 12.390 C 199.074 12.352,199.000 12.481,198.949 12.677 M203.479 13.223 C 203.773 13.579,204.067 13.574,204.355 13.208 C 204.564 12.941,204.558 12.937,204.278 13.157 C 204.020 13.360,203.917 13.362,203.611 13.172 C 203.282 12.966,203.270 12.971,203.479 13.223 M199.333 13.972 C 199.333 14.079,199.183 14.317,199.000 14.500 C 198.817 14.683,198.740 14.833,198.829 14.833 C 199.049 14.833,199.573 14.017,199.439 13.884 C 199.381 13.825,199.333 13.865,199.333 13.972 " stroke="none" fill="#cc9c9c" fill-rule="evenodd"></path><path id="path4" d="M200.801 0.792 C 200.663 0.952,200.502 1.169,200.443 1.275 C 200.263 1.593,199.693 5.325,199.606 6.750 L 199.525 8.083 199.689 6.833 C 200.486 0.749,201.245 -0.921,202.026 1.688 C 202.133 2.044,202.253 2.303,202.293 2.262 C 202.428 2.127,201.967 0.919,201.700 0.708 C 201.340 0.424,201.097 0.447,200.801 0.792 M195.621 2.069 C 195.174 2.516,194.913 3.553,194.089 8.141 C 193.521 11.305,193.516 11.303,192.742 7.823 C 191.501 2.241,190.393 2.133,188.994 7.458 C 188.699 8.581,188.401 9.500,188.332 9.500 C 188.180 9.500,187.643 8.244,187.254 6.975 C 186.392 4.166,185.290 4.180,183.993 7.015 C 183.041 9.098,183.008 9.105,182.110 7.419 C 180.971 5.281,180.143 5.128,178.958 6.836 C 177.741 8.592,177.702 8.602,176.843 7.405 C 175.778 5.922,175.018 5.867,173.579 7.170 C 172.480 8.166,172.614 8.155,171.520 7.333 C 171.032 6.967,170.555 6.667,170.460 6.667 C 170.365 6.667,170.579 6.864,170.935 7.105 C 171.292 7.347,171.762 7.684,171.981 7.855 C 172.516 8.275,172.475 8.289,173.743 7.250 C 175.171 6.080,175.325 6.089,176.609 7.425 C 177.797 8.661,178.004 8.673,178.678 7.544 C 180.040 5.263,180.785 5.308,182.121 7.753 C 182.963 9.293,183.086 9.255,184.111 7.138 C 185.566 4.134,186.098 4.262,187.410 7.934 C 188.329 10.504,188.298 10.517,189.256 7.166 C 190.594 2.484,191.437 2.549,192.487 7.417 C 193.116 10.332,193.179 10.586,193.332 10.832 C 193.616 11.289,193.792 10.790,194.247 8.250 C 195.177 3.052,195.497 2.000,196.150 2.000 C 196.802 2.000,197.093 2.971,197.745 7.328 C 197.958 8.752,198.140 9.729,198.149 9.500 C 198.170 8.929,197.557 4.881,197.244 3.532 C 196.886 1.988,196.263 1.427,195.621 2.069 M202.340 2.681 C 202.357 3.286,203.134 8.027,203.149 7.619 C 203.168 7.119,202.508 2.629,202.399 2.514 C 202.363 2.476,202.336 2.551,202.340 2.681 M201.015 3.502 C 200.764 4.674,200.451 7.436,200.539 7.698 C 200.580 7.818,200.667 7.354,200.732 6.667 C 201.028 3.536,201.367 2.574,201.578 4.264 C 201.642 4.776,201.733 5.156,201.781 5.108 C 201.913 4.976,201.489 2.667,201.332 2.667 C 201.256 2.667,201.114 3.043,201.015 3.502 M205.862 3.252 C 205.505 3.706,205.253 4.737,204.561 8.583 C 204.066 11.334,203.940 11.653,203.679 10.814 L 203.504 10.250 203.600 10.915 C 203.823 12.447,204.063 12.144,204.495 9.792 C 205.557 3.999,205.851 3.000,206.493 3.000 C 207.031 3.000,207.405 3.810,207.920 6.085 C 208.179 7.229,208.422 8.133,208.460 8.096 C 208.641 7.914,207.581 3.780,207.207 3.208 C 206.882 2.711,206.271 2.731,205.862 3.252 M195.934 3.931 C 195.763 4.378,195.807 4.800,195.993 4.505 C 196.261 4.082,196.322 4.347,196.924 8.516 C 197.719 14.016,197.918 14.765,198.633 14.944 C 199.094 15.060,199.669 14.547,199.664 14.023 C 199.663 13.837,199.596 13.877,199.456 14.150 C 198.520 15.971,197.980 14.751,197.173 8.993 C 196.510 4.257,196.237 3.142,195.934 3.931 M211.208 4.590 C 210.859 4.834,210.379 6.145,209.575 9.042 C 209.285 10.088,209.062 10.254,208.905 9.542 C 208.706 8.637,208.490 8.188,208.594 8.893 C 208.850 10.633,209.271 10.730,209.719 9.153 C 210.894 5.015,211.129 4.500,211.842 4.500 C 212.291 4.500,212.681 5.195,213.421 7.308 C 214.376 10.036,214.408 10.039,215.497 7.488 C 216.598 4.909,217.190 4.850,218.582 7.181 C 219.638 8.947,219.752 8.966,220.713 7.520 C 221.856 5.802,222.474 5.747,223.757 7.250 C 224.710 8.365,225.013 8.396,226.007 7.485 C 227.293 6.307,227.403 6.309,229.406 7.558 L 230.167 8.032 231.325 7.433 C 232.733 6.704,232.846 6.701,234.234 7.350 L 235.340 7.868 236.652 7.401 L 237.964 6.935 239.003 7.224 C 239.575 7.383,240.074 7.482,240.112 7.444 C 240.150 7.406,239.681 7.239,239.069 7.073 L 237.957 6.772 236.788 7.170 C 235.396 7.644,235.070 7.634,234.038 7.085 C 233.005 6.535,232.699 6.555,231.336 7.260 C 230.161 7.868,229.500 7.840,229.083 7.165 C 228.477 6.185,227.113 6.225,226.010 7.257 C 225.037 8.167,224.683 8.188,224.064 7.375 C 222.626 5.482,221.849 5.513,220.487 7.519 C 219.672 8.720,219.627 8.713,218.795 7.242 C 217.295 4.589,216.558 4.634,215.331 7.454 C 214.941 8.350,214.593 9.116,214.558 9.156 C 214.401 9.335,214.123 8.769,213.501 7.004 C 212.618 4.495,212.109 3.959,211.208 4.590 M206.102 5.625 C 205.956 6.244,205.687 7.612,205.505 8.667 C 204.758 13.006,204.596 13.500,203.917 13.500 C 203.588 13.500,203.427 13.370,203.248 12.958 C 203.119 12.660,203.010 12.531,203.007 12.671 C 202.994 13.171,203.510 13.688,203.966 13.635 C 204.673 13.551,204.944 12.810,205.598 9.164 C 206.516 4.051,206.495 4.067,207.334 7.833 C 208.042 11.013,208.385 11.750,209.157 11.750 C 209.903 11.750,210.182 11.283,210.751 9.077 C 211.692 5.438,211.768 5.386,212.585 7.839 C 213.807 11.507,214.678 11.615,216.222 8.292 C 217.118 6.364,216.994 6.409,217.739 7.741 C 219.248 10.439,219.883 10.504,221.483 8.125 C 222.155 7.127,222.444 7.131,223.219 8.148 C 224.317 9.587,225.091 9.652,226.463 8.419 C 227.443 7.537,227.664 7.507,228.476 8.143 C 229.823 9.198,230.132 9.221,231.671 8.379 L 232.805 7.759 233.836 8.251 C 235.031 8.823,235.755 8.849,236.833 8.362 C 237.246 8.176,237.486 8.018,237.367 8.012 C 237.248 8.005,236.923 8.117,236.646 8.261 C 235.864 8.665,234.913 8.599,233.792 8.064 L 232.796 7.587 231.654 8.210 C 230.219 8.993,229.938 8.989,228.790 8.167 C 227.596 7.311,227.362 7.327,226.250 8.333 C 224.999 9.466,224.687 9.448,223.487 8.167 C 222.251 6.848,222.004 6.885,221.013 8.542 C 220.569 9.284,220.069 9.667,219.543 9.667 C 219.169 9.667,218.987 9.430,217.549 7.083 C 217.073 6.305,216.840 6.468,216.135 8.070 C 214.752 11.218,213.911 11.342,212.988 8.533 C 211.757 4.788,211.717 4.792,210.660 8.799 C 209.501 13.194,208.602 12.820,207.424 7.454 C 206.657 3.956,206.537 3.791,206.102 5.625 M195.583 5.500 C 195.519 5.879,195.502 6.224,195.545 6.267 C 195.587 6.310,195.672 6.032,195.733 5.650 C 195.794 5.268,195.812 4.923,195.772 4.883 C 195.732 4.843,195.647 5.121,195.583 5.500 M190.601 5.430 C 190.421 5.900,190.494 6.072,190.734 5.743 C 191.009 5.368,191.198 5.926,191.842 9.000 C 192.491 12.098,192.982 12.965,193.890 12.617 C 194.379 12.429,195.151 9.690,195.403 7.250 C 195.450 6.792,195.345 7.129,195.169 8.000 C 194.994 8.871,194.762 10.010,194.654 10.531 C 193.966 13.869,192.931 13.130,191.925 8.583 C 191.187 5.249,190.917 4.607,190.601 5.430 M201.864 5.833 C 201.858 6.154,201.915 6.717,201.990 7.083 C 202.182 8.009,202.198 7.063,202.009 6.000 C 201.884 5.301,201.874 5.289,201.864 5.833 M184.729 7.776 C 183.284 10.882,182.855 10.871,181.125 7.679 C 180.559 6.634,180.306 6.622,179.622 7.610 C 178.110 9.791,177.678 9.886,176.333 8.333 C 175.292 7.131,175.063 7.105,174.031 8.071 C 172.807 9.215,172.330 9.226,171.004 8.141 C 170.276 7.545,169.609 7.532,168.780 8.095 C 167.841 8.733,167.238 8.771,166.039 8.266 C 164.802 7.746,164.509 7.735,163.373 8.167 C 162.325 8.565,161.778 8.583,160.833 8.250 C 160.444 8.112,160.003 8.004,159.854 8.009 C 159.372 8.025,161.566 8.662,162.111 8.664 C 162.401 8.666,162.989 8.517,163.417 8.333 C 164.416 7.905,164.705 7.914,165.917 8.413 C 167.237 8.958,167.789 8.942,168.683 8.336 C 169.640 7.688,170.117 7.704,171.053 8.420 C 172.375 9.429,173.139 9.336,174.406 8.012 C 175.085 7.302,175.300 7.357,176.306 8.500 C 177.631 10.005,178.305 9.918,179.495 8.090 C 180.384 6.727,180.454 6.732,181.239 8.208 C 182.702 10.958,183.454 10.903,184.815 7.943 C 185.652 6.122,185.691 6.136,186.619 8.588 C 187.628 11.258,188.106 11.708,188.957 10.792 C 189.405 10.310,190.672 6.450,190.454 6.232 C 190.419 6.197,190.180 6.936,189.923 7.876 C 188.786 12.032,188.145 12.108,186.676 8.263 C 185.720 5.761,185.671 5.749,184.729 7.776 M168.417 7.167 C 167.399 7.770,167.207 7.777,166.167 7.250 C 165.209 6.765,164.495 6.727,163.479 7.106 C 163.078 7.256,162.450 7.434,162.083 7.502 C 161.499 7.610,161.479 7.628,161.917 7.646 C 162.192 7.657,162.811 7.517,163.293 7.333 C 164.452 6.893,165.133 6.913,166.136 7.417 C 166.592 7.646,167.104 7.832,167.274 7.831 C 167.589 7.829,169.720 6.679,169.417 6.675 C 169.325 6.673,168.875 6.895,168.417 7.167 M158.167 7.119 C 157.571 7.263,157.176 7.414,157.290 7.454 C 157.404 7.494,157.757 7.441,158.074 7.336 C 158.839 7.084,159.820 7.082,160.575 7.331 C 160.913 7.442,161.229 7.493,161.278 7.444 C 161.362 7.360,160.589 7.117,159.667 6.937 C 159.438 6.893,158.762 6.974,158.167 7.119 M153.465 7.090 C 153.416 7.140,118.852 7.176,76.657 7.170 C 34.461 7.165,-0.025 7.197,0.020 7.242 C 0.081 7.303,149.455 7.335,154.083 7.275 C 154.542 7.269,155.329 7.317,155.833 7.382 L 156.750 7.499 155.750 7.260 C 154.717 7.014,153.623 6.932,153.465 7.090 M241.833 7.253 L 241.083 7.493 241.750 7.372 C 242.117 7.305,242.979 7.277,243.667 7.311 C 245.535 7.402,246.967 7.413,248.083 7.346 C 248.633 7.313,283.016 7.295,324.489 7.306 C 365.963 7.317,399.932 7.290,399.977 7.245 C 400.072 7.151,249.634 7.085,248.000 7.178 C 246.521 7.263,245.139 7.243,243.750 7.117 C 242.933 7.043,242.359 7.084,241.833 7.253 M202.184 8.167 C 202.161 8.769,202.630 11.552,202.834 12.019 C 202.992 12.380,202.998 12.371,202.901 11.917 C 202.842 11.642,202.660 10.592,202.497 9.583 C 202.334 8.575,202.193 7.938,202.184 8.167 M147.750 8.158 C 146.979 8.232,147.341 8.278,149.333 8.361 C 150.823 8.423,152.421 8.397,153.107 8.300 C 153.944 8.181,154.553 8.186,155.157 8.316 C 156.322 8.565,157.418 8.543,158.417 8.247 C 159.128 8.037,159.153 8.018,158.583 8.115 C 158.217 8.177,157.354 8.217,156.667 8.203 C 155.241 8.173,152.812 8.183,151.583 8.223 C 151.125 8.238,150.300 8.208,149.750 8.157 C 149.200 8.105,148.300 8.106,147.750 8.158 M200.255 9.208 C 200.194 9.873,200.037 11.054,199.906 11.833 C 199.659 13.305,199.616 13.773,199.739 13.650 C 199.937 13.452,200.623 8.000,200.450 8.000 C 200.405 8.000,200.317 8.544,200.255 9.208 M239.618 8.378 C 240.643 8.723,240.663 8.723,241.893 8.417 C 243.018 8.137,243.268 8.129,244.562 8.330 C 245.682 8.504,246.286 8.511,247.370 8.363 C 248.142 8.258,249.154 8.228,249.667 8.296 C 250.171 8.362,284.221 8.378,325.333 8.332 L 400.083 8.247 324.813 8.210 C 283.414 8.189,249.415 8.124,249.259 8.064 C 249.103 8.004,248.302 8.052,247.479 8.170 C 246.251 8.346,245.729 8.345,244.573 8.165 C 243.313 7.969,243.026 7.978,241.853 8.246 C 240.625 8.526,240.489 8.528,239.741 8.273 C 239.301 8.123,238.860 8.007,238.762 8.015 C 238.664 8.024,239.049 8.187,239.618 8.378 M36.472 8.292 C 56.577 8.315,89.427 8.315,109.472 8.292 C 129.517 8.268,113.067 8.249,72.917 8.249 C 32.767 8.249,16.367 8.268,36.472 8.292 M199.189 9.910 C 198.962 11.872,198.755 12.555,198.609 11.831 C 198.563 11.603,198.448 11.079,198.353 10.667 L 198.182 9.917 198.268 10.750 C 198.399 12.007,198.664 12.902,198.851 12.716 C 199.030 12.537,199.553 8.799,199.460 8.364 C 199.427 8.210,199.305 8.905,199.189 9.910 M203.196 8.500 C 203.190 8.729,203.248 9.217,203.324 9.583 L 203.462 10.250 203.461 9.667 C 203.460 8.931,203.212 7.838,203.196 8.500 " stroke="none" fill="#dfbcbc" fill-rule="evenodd"></path></g></svg>